<svg  fill="#ffffff" viewBox="0 0 1920 1440" preserveAspectRatio="xMinYMin slice" xmlns="http://www.w3.org/2000/svg"><path d="M0,1440H1920V0H0ZM729.79,450c112.5,8.65,199.22-58.32,293-101.82,36.35-25.81,75.42-47.67,120.66-60.64,411.05-130.29,634.07,288.11,369.08,599.49-3.24,4.19-6.56,8.32-9.91,12.42-47.1,57.67-104.37,106.58-168.16,146.51-333,208.45-851,170.72-1006.95-133.47-18.53-36.13-20.8-89.14-3.36-140-10.74-23.07-22-46.55-26.65-72C253.28,457.35,515.27,433.55,729.79,450Z"/>
									<path fill-opacity=".4" d="M1178.93,307.43c-57.11.78-107.59,18.28-156.1,40.78,36.35-25.81,75.42-47.67,120.66-60.64,411.05-130.29,634.07,288.11,369.08,599.49-3.24,4.19-6.56,8.32-9.91,12.42C1683.16,653.44,1539.44,291.86,1178.93,307.43ZM324.19,772.53c-17.44,50.85-15.17,103.86,3.36,140,156,304.19,674,341.92,1007,133.47C1004.57,1239.39,478.65,1104.63,324.19,772.53Z"/></svg>